<svg width="140" height="140" viewBox="0 0 140 140" fill="none" xmlns="http://www.w3.org/2000/svg">
<circle cx="70" cy="70" r="69.5" fill="white" stroke="black"/>
<path d="M36.884 62.544L34.052 58.824V62.544H32V54.12H34.052V57.816L36.86 54.12H39.272L36.008 58.248L39.392 62.544H36.884Z" fill="black"/>
<path d="M39.9592 59.184C39.9592 58.496 40.0872 57.892 40.3432 57.372C40.6072 56.852 40.9632 56.452 41.4112 56.172C41.8592 55.892 42.3592 55.752 42.9112 55.752C43.3832 55.752 43.7952 55.848 44.1472 56.04C44.5072 56.232 44.7832 56.484 44.9752 56.796V55.848H47.0272V62.544H44.9752V61.596C44.7752 61.908 44.4952 62.16 44.1352 62.352C43.7832 62.544 43.3712 62.64 42.8992 62.64C42.3552 62.64 41.8592 62.5 41.4112 62.22C40.9632 61.932 40.6072 61.528 40.3432 61.008C40.0872 60.48 39.9592 59.872 39.9592 59.184ZM44.9752 59.196C44.9752 58.684 44.8312 58.28 44.5432 57.984C44.2632 57.688 43.9192 57.54 43.5112 57.54C43.1032 57.54 42.7552 57.688 42.4672 57.984C42.1872 58.272 42.0472 58.672 42.0472 59.184C42.0472 59.696 42.1872 60.104 42.4672 60.408C42.7552 60.704 43.1032 60.852 43.5112 60.852C43.9192 60.852 44.2632 60.704 44.5432 60.408C44.8312 60.112 44.9752 59.708 44.9752 59.196Z" fill="black"/>
<path d="M52.5917 55.776C53.3757 55.776 53.9997 56.032 54.4637 56.544C54.9357 57.048 55.1717 57.744 55.1717 58.632V62.544H53.1317V58.908C53.1317 58.46 53.0157 58.112 52.7837 57.864C52.5517 57.616 52.2397 57.492 51.8477 57.492C51.4557 57.492 51.1437 57.616 50.9117 57.864C50.6797 58.112 50.5637 58.46 50.5637 58.908V62.544H48.5117V55.848H50.5637V56.736C50.7717 56.44 51.0517 56.208 51.4037 56.04C51.7557 55.864 52.1517 55.776 52.5917 55.776Z" fill="black"/>
<path d="M58.6497 56.796C58.8497 56.484 59.1257 56.232 59.4777 56.04C59.8297 55.848 60.2417 55.752 60.7137 55.752C61.2657 55.752 61.7657 55.892 62.2137 56.172C62.6617 56.452 63.0137 56.852 63.2697 57.372C63.5337 57.892 63.6657 58.496 63.6657 59.184C63.6657 59.872 63.5337 60.48 63.2697 61.008C63.0137 61.528 62.6617 61.932 62.2137 62.22C61.7657 62.5 61.2657 62.64 60.7137 62.64C60.2497 62.64 59.8377 62.544 59.4777 62.352C59.1257 62.16 58.8497 61.912 58.6497 61.608V65.736H56.5977V55.848H58.6497V56.796ZM61.5777 59.184C61.5777 58.672 61.4337 58.272 61.1457 57.984C60.8657 57.688 60.5177 57.54 60.1017 57.54C59.6937 57.54 59.3457 57.688 59.0577 57.984C58.7777 58.28 58.6377 58.684 58.6377 59.196C58.6377 59.708 58.7777 60.112 59.0577 60.408C59.3457 60.704 59.6937 60.852 60.1017 60.852C60.5097 60.852 60.8577 60.704 61.1457 60.408C61.4337 60.104 61.5777 59.696 61.5777 59.184Z" fill="black"/>
<path d="M71.3542 55.848V62.544H69.3022V61.632C69.0942 61.928 68.8102 62.168 68.4502 62.352C68.0982 62.528 67.7062 62.616 67.2742 62.616C66.7622 62.616 66.3102 62.504 65.9182 62.28C65.5262 62.048 65.2222 61.716 65.0062 61.284C64.7902 60.852 64.6822 60.344 64.6822 59.76V55.848H66.7222V59.484C66.7222 59.932 66.8382 60.28 67.0702 60.528C67.3022 60.776 67.6142 60.9 68.0062 60.9C68.4062 60.9 68.7222 60.776 68.9542 60.528C69.1862 60.28 69.3022 59.932 69.3022 59.484V55.848H71.3542Z" fill="black"/>
<path d="M74.8801 56.964C75.1201 56.596 75.4201 56.308 75.7801 56.1C76.1401 55.884 76.5401 55.776 76.9801 55.776V57.948H76.4161C75.9041 57.948 75.5201 58.06 75.2641 58.284C75.0081 58.5 74.8801 58.884 74.8801 59.436V62.544H72.8281V55.848H74.8801V56.964Z" fill="black"/>
<path d="M83.4449 54.12V55.764H80.0129V57.54H82.5809V59.136H80.0129V62.544H77.9609V54.12H83.4449Z" fill="black"/>
<path d="M88.5074 62.628C87.7154 62.628 86.9874 62.444 86.3234 62.076C85.6674 61.708 85.1434 61.196 84.7514 60.54C84.3674 59.876 84.1754 59.132 84.1754 58.308C84.1754 57.484 84.3674 56.744 84.7514 56.088C85.1434 55.432 85.6674 54.92 86.3234 54.552C86.9874 54.184 87.7154 54 88.5074 54C89.2994 54 90.0234 54.184 90.6794 54.552C91.3434 54.92 91.8634 55.432 92.2394 56.088C92.6234 56.744 92.8154 57.484 92.8154 58.308C92.8154 59.132 92.6234 59.876 92.2394 60.54C91.8554 61.196 91.3354 61.708 90.6794 62.076C90.0234 62.444 89.2994 62.628 88.5074 62.628ZM88.5074 60.756C89.1794 60.756 89.7154 60.532 90.1154 60.084C90.5234 59.636 90.7274 59.044 90.7274 58.308C90.7274 57.564 90.5234 56.972 90.1154 56.532C89.7154 56.084 89.1794 55.86 88.5074 55.86C87.8274 55.86 87.2834 56.08 86.8754 56.52C86.4754 56.96 86.2754 57.556 86.2754 58.308C86.2754 59.052 86.4754 59.648 86.8754 60.096C87.2834 60.536 87.8274 60.756 88.5074 60.756Z" fill="black"/>
<path d="M97.005 62.628C96.389 62.628 95.837 62.528 95.349 62.328C94.861 62.128 94.469 61.832 94.173 61.44C93.885 61.048 93.733 60.576 93.717 60.024H95.901C95.933 60.336 96.041 60.576 96.225 60.744C96.409 60.904 96.649 60.984 96.945 60.984C97.249 60.984 97.489 60.916 97.665 60.78C97.841 60.636 97.929 60.44 97.929 60.192C97.929 59.984 97.857 59.812 97.713 59.676C97.577 59.54 97.405 59.428 97.197 59.34C96.997 59.252 96.709 59.152 96.333 59.04C95.789 58.872 95.345 58.704 95.001 58.536C94.657 58.368 94.361 58.12 94.113 57.792C93.865 57.464 93.741 57.036 93.741 56.508C93.741 55.724 94.025 55.112 94.593 54.672C95.161 54.224 95.901 54 96.813 54C97.741 54 98.489 54.224 99.057 54.672C99.625 55.112 99.929 55.728 99.969 56.52H97.749C97.733 56.248 97.633 56.036 97.449 55.884C97.265 55.724 97.029 55.644 96.741 55.644C96.493 55.644 96.293 55.712 96.141 55.848C95.989 55.976 95.913 56.164 95.913 56.412C95.913 56.684 96.041 56.896 96.297 57.048C96.553 57.2 96.953 57.364 97.497 57.54C98.041 57.724 98.481 57.9 98.817 58.068C99.161 58.236 99.457 58.48 99.705 58.8C99.953 59.12 100.077 59.532 100.077 60.036C100.077 60.516 99.953 60.952 99.705 61.344C99.465 61.736 99.113 62.048 98.649 62.28C98.185 62.512 97.637 62.628 97.005 62.628Z" fill="black"/>
<path d="M104.388 62.628C103.772 62.628 103.22 62.528 102.732 62.328C102.244 62.128 101.852 61.832 101.556 61.44C101.268 61.048 101.116 60.576 101.1 60.024H103.284C103.316 60.336 103.424 60.576 103.608 60.744C103.792 60.904 104.032 60.984 104.328 60.984C104.632 60.984 104.872 60.916 105.048 60.78C105.224 60.636 105.312 60.44 105.312 60.192C105.312 59.984 105.24 59.812 105.096 59.676C104.96 59.54 104.788 59.428 104.58 59.34C104.38 59.252 104.092 59.152 103.716 59.04C103.172 58.872 102.728 58.704 102.384 58.536C102.04 58.368 101.744 58.12 101.496 57.792C101.248 57.464 101.124 57.036 101.124 56.508C101.124 55.724 101.408 55.112 101.976 54.672C102.544 54.224 103.284 54 104.196 54C105.124 54 105.872 54.224 106.44 54.672C107.008 55.112 107.312 55.728 107.352 56.52H105.132C105.116 56.248 105.016 56.036 104.832 55.884C104.648 55.724 104.412 55.644 104.124 55.644C103.876 55.644 103.676 55.712 103.524 55.848C103.372 55.976 103.296 56.164 103.296 56.412C103.296 56.684 103.424 56.896 103.68 57.048C103.936 57.2 104.336 57.364 104.88 57.54C105.424 57.724 105.864 57.9 106.2 58.068C106.544 58.236 106.84 58.48 107.088 58.8C107.336 59.12 107.46 59.532 107.46 60.036C107.46 60.516 107.336 60.952 107.088 61.344C106.848 61.736 106.496 62.048 106.032 62.28C105.568 62.512 105.02 62.628 104.388 62.628Z" fill="black"/>
<rect x="56" y="70.7363" width="28" height="28" fill="black"/>
<path d="M61 76.7363H63.6744L69.3023 82.0442L63.6744 87.3753H61L66.6279 82.0442L61 76.7363Z" fill="white"/>
<path d="M79 90.7893V92.7363H66.6279V90.7893H72.814H79Z" fill="white"/>
</svg>
